<svg xmlns="http://www.w3.org/2000/svg" width="512" height="512" viewBox="0 0 27.75 27.75"><path d="M13.875 27.75l-4.268-7.393H4.273c-2.195 0-3.98-1.618-3.98-3.609V3.61C.293 1.619 2.079 0 4.273 0h19.204c2.194 0 3.979 1.619 3.979 3.61v13.138c0 1.991-1.785 3.609-3.979 3.609h-5.334l-4.268 7.393zM4.273 2c-1.091 0-1.98.722-1.98 1.61v13.138c0 .888.889 1.609 1.98 1.609h6.486l3.113 5.393 3.112-5.393h6.49c1.092 0 1.979-.722 1.979-1.609V3.61c0-.888-.89-1.61-1.979-1.61H4.273z" fill="#707070" data-original="#000000" xmlns="http://www.w3.org/2000/svg"/></svg>